<?xml version="1.0" encoding="UTF-8"?>
<svg width="5515px" height="1772px" viewBox="0 0 5515 1772" version="1.1" xmlns="http://www.w3.org/2000/svg" xmlns:xlink="http://www.w3.org/1999/xlink">
    <!-- Generator: Sketch 46.2 (44496) - http://www.bohemiancoding.com/sketch -->
    <title>Artboard</title>
    <desc>Created with Sketch.</desc>
    <defs>
        <circle id="path-1" cx="74.5" cy="74.5" r="74.5"></circle>
    </defs>
    <g id="Page-1" stroke="none" stroke-width="1" fill="none" fill-rule="evenodd">
        <g id="Artboard">
            <path d="M317.386938,753.5 L5200.43519,753.5" id="Line" stroke="#189E99" stroke-width="5" stroke-linecap="square"></path>
            <text id="Run-‘deployments’-La" font-family="FiraSans-Bold, Fira Sans" font-size="64" font-weight="bold" fill="#0B1833">
                <tspan x="1325.012" y="947">Run ‘deployments’ </tspan>
                <tspan x="1350.068" y="1046">Lambda function</tspan>
            </text>
            <circle id="Oval" stroke="#189E99" stroke-width="5" fill="#ECF8F7" cx="246" cy="756" r="77"></circle>
            <g id="noun_17239" transform="translate(171.000000, 684.000000)">
                <mask id="mask-2" fill="white">
                    <use xlink:href="#path-1"></use>
                </mask>
                <use id="Mask" fill="#ECF8F7" xlink:href="#path-1"></use>
                <g mask="url(#mask-2)" id="Shape" fill-rule="nonzero" fill="#189E99">
                    <g transform="translate(7.000000, 9.000000)">
                        <path d="M134.423701,120.8102 C128.950319,106.33 120.086062,101.801 112.315366,99.939 C104.032761,90.9342 105.970204,55.5044 105.970204,55.5044 C106.076213,54.9108 106.169668,54.3046 106.23941,53.6942 C106.23941,53.6942 106.244989,53.6942 106.250569,53.6942 C106.250569,53.6942 117.608813,15.2348 87.4801042,1.4616 C87.4801042,1.4616 82.0583314,0.168 77.887737,1.1522 C75.0255097,0.4536 72.2274453,0 69.6148957,0 C68.8407553,0 68.1154345,0.035 67.4138262,0.0882 C66.6982693,0.0294 65.9617898,0 65.2267051,0 C61.9306801,0 58.3989259,0.5656 54.727687,1.673 L54.5937816,1.7164 L54.4584814,1.7612 C44.7140758,5.1758 28.1349169,18.2966 30.7586253,44.261 C30.6819087,44.3492 30.6135612,44.436 30.5480033,44.5242 C27.8336298,47.9528 28.2423202,52.6204 29.0666751,56.5474 C29.2982198,64.6352 29.7208587,87.507 27.5337376,98.9534 C26.7888889,99.106 26.0496197,99.2572 25.3382474,99.3888 C17.0165865,100.877 6.68355521,104.6556 0.576912287,120.806 C-0.456669807,123.5542 -0.0912197276,126.532 1.59096651,128.9764 C7.85662207,138.0862 40.8935882,140 67.5003067,140 C94.1070253,140 127.143991,138.0862 133.409647,128.975 C135.091833,126.5306 135.455888,123.5528 134.423701,120.8102 Z M35.9488533,48.5352 C37.5836148,48.6472 39.1876895,48.6472 40.7833952,48.5898 L40.7638674,48.65 L42.7919758,59.3684 L45.0069938,48.2552 C47.2554882,47.9766 49.4607423,47.5874 51.6032283,47.0554 C60.8106175,44.7524 68.9174719,40.3074 75.0436427,36.1102 C79.5601593,33.0204 82.9817206,30.0832 85.0070393,28.2156 C86.1731319,31.4804 89.4426548,39.6564 94.9160369,45.997 L94.9160369,53.5598 L96.6344892,47.859 C96.6860985,47.908 96.7404976,47.9542 96.792107,48.0046 C96.7669997,48.111 96.7669997,48.2076 96.746077,48.314 C96.746077,48.314 96.8660339,48.2622 97.0124929,48.2076 C97.8494015,49.014 98.7393142,49.7476 99.657124,50.428 C99.7966087,51.618 99.6654931,53.3778 99.0601292,55.9846 C97.0306259,64.7626 93.5672192,65.3002 92.7512334,65.3002 C92.6396456,65.3002 92.5768774,65.2918 92.5768774,65.2918 C92.5768774,65.2918 92.1402901,73.5196 84.5969541,82.3928 C84.5969541,82.4614 84.5857953,82.5384 84.5857953,82.6056 C78.7148817,88.6018 72.7268008,91.5082 66.7205869,91.2814 C59.2525727,90.9692 53.3509724,85.8564 50.4203975,82.7582 C50.4148181,82.712 50.4106336,82.6434 50.4106336,82.5972 C42.7110746,73.6442 42.2549595,65.2904 42.2549595,65.2904 C42.2549595,65.2904 42.1921913,65.2988 42.076419,65.2988 C41.6300677,65.2988 40.3802843,65.0832 39.0161233,63.4858 L37.4301815,60.9672 C36.8345816,59.7044 36.2626941,58.093 35.7731025,55.9818 C34.6753574,51.2316 35.1510005,49.2926 35.9488533,48.5352 Z M67.7165081,126.3374 L63.5738106,122.1808 C32.3055113,121.9736 13.7094027,112.056 13.6717418,112.0364 C17.8423363,107.9652 22.4829943,106.701 26.5113143,105.98 C32.9973557,104.818 48.74937,100.8616 50.1344537,97.1418 C50.5570926,96.0232 50.7105258,93.94 50.7398176,91.5964 C54.709554,94.5854 60.018344,97.412 66.4053513,97.692 C66.7554581,97.7116 67.1069597,97.7214 67.4570664,97.7214 C73.2247614,97.7214 78.8432077,95.5752 84.2552165,91.427 C84.2803237,93.8392 84.4351518,95.9966 84.8661597,97.1418 C86.2498486,100.8602 102.001863,104.8166 108.492089,105.98 C112.519014,106.7024 117.161067,107.9652 121.331661,112.0364 C102.926647,118.5338 86.4060715,121.2792 72.0572739,121.982 L67.7165081,126.3374 Z M127.9809,124.9038 L127.9809,122.724 C128.043668,122.8878 128.120385,123.0138 128.183153,123.1804 C128.410513,123.7852 128.278003,124.355 127.9809,124.9038 Z"></path>
                    </g>
                </g>
            </g>
            <text id="Deployment-created" font-family="FiraSans-Bold, Fira Sans" font-size="64" font-weight="bold" fill="#0B1833">
                <tspan x="67.984" y="952">Deployment </tspan>
                <tspan x="133.296" y="1051">created</tspan>
            </text>
            <text id="Cloudwatch-Event-(ru" font-family="FiraSans-Bold, Fira Sans" font-size="64" font-weight="bold" fill="#0B1833">
                <tspan x="635.38" y="947">Cloudwatch Event</tspan>
                <tspan x="654.228" y="1046">(runs on a timer)</tspan>
            </text>
            <circle id="Oval" stroke="#189E99" stroke-width="5" fill="#ECF8F7" cx="897" cy="753" r="77"></circle>
            <circle id="Oval" stroke="#189E99" stroke-width="5" fill="#ECF8F7" cx="1598" cy="753" r="77"></circle>
            <text id="Publish-a-message-to" font-family="FiraSans-Bold, Fira Sans" font-size="64" font-weight="bold" fill="#0B1833">
                <tspan x="2100.54" y="947">Publish a message to </tspan>
                <tspan x="2002.652" y="1046">SNS Topic (per deployment)</tspan>
            </text>
            <circle id="Oval" stroke="#189E99" stroke-width="5" fill="#ECF8F7" cx="2411" cy="753" r="77"></circle>
            <text id="SNS-triggers-‘deploy" font-family="FiraSans-Bold, Fira Sans" font-size="64" font-weight="bold" fill="#0B1833">
                <tspan x="2991.38" y="947">SNS triggers ‘deployments-</tspan>
                <tspan x="2955.7" y="1046">notify-slack’ Lambda function</tspan>
            </text>
            <circle id="Oval" stroke="#189E99" stroke-width="5" fill="#ECF8F7" cx="3394" cy="753" r="77"></circle>
            <text id="Run-‘deployments-not" font-family="FiraSans-Bold, Fira Sans" font-size="64" font-weight="bold" fill="#0B1833">
                <tspan x="3915.98" y="947">Run ‘deployments-notify-slack’ </tspan>
                <tspan x="4129.068" y="1046">Lambda function</tspan>
            </text>
            <circle id="Oval" stroke="#189E99" stroke-width="5" fill="#ECF8F7" cx="4377" cy="753" r="77"></circle>
            <text id="Message-sent-to-Slac" font-family="FiraSans-Bold, Fira Sans" font-size="64" font-weight="bold" fill="#0B1833">
                <tspan x="4951.38" y="947">Message sent to </tspan>
                <tspan x="4987.092" y="1046">Slack channel</tspan>
            </text>
            <circle id="Oval" stroke="#189E99" stroke-width="5" fill="#ECF8F7" cx="5190" cy="753" r="77"></circle>
        </g>
    </g>
</svg>